<svg xmlns="http://www.w3.org/2000/svg" width="500" height="166" viewBox="0 0 500 166" role="img" aria-labelledby="title desc">
<title id="title">Incidentenkaart</title><desc id="desc">Incidentenkaart</desc>
<defs><linearGradient id="wash" x2="1" y2="1"><stop stop-color="#FFF3F9"/><stop offset="1" stop-color="#EEE6FF"/></linearGradient><clipPath id="clip"><rect width="500" height="166" rx="16"/></clipPath></defs>
<g clip-path="url(#clip)"><rect width="500" height="166" fill="url(#wash)"/>
<circle cx="410" cy="71" r="127" fill="#FFE0EF" opacity=".5"/>
<text x="24" y="63" font-family="DejaVu Sans, Arial, sans-serif" font-size="11" letter-spacing="1.5" fill="#865B7C">MAPS &amp; SOURCES</text>
<text x="23" y="100" font-family="DejaVu Sans, Arial, sans-serif" font-size="27" font-weight="700" letter-spacing="-1" fill="#502A49">Incidentenkaart</text>
<path d="M295 36L337 20L380 38L424 18L464 34V132L424 116L380 136L337 117L295 135Z" fill="#FFFBFE" stroke="#EDBDD7" stroke-width="2"/>
<path d="M337 20V117M380 38V136M424 18V116" stroke="#EDBDD7" stroke-width="2"/>
<path d="M312 112Q332 65 355 79T430 53" fill="none" stroke="#F5ADCF" stroke-width="3" stroke-dasharray="4 5"/>
<path d="M378 45C343 45 351 80 378 103C405 80 413 45 378 45Z" fill="#D81779"/>
<g transform="translate(378 66) scale(0.6)"><path class="" d="M0 9C-3 6-12 0-12-6C-12-14-3-16 0-8C3-16 12-14 12-6C12 0 3 6 0 9Z" fill="#FFFBFE"/></g><path class="" transform="translate(454 101) scale(0.7)" d="M0-12Q2-2 12 0Q2 2 0 12Q-2 2-12 0Q-2-2 0-12Z" fill="#D81779"/></g>
</svg>
