<svg xmlns="http://www.w3.org/2000/svg" width="500" height="166" viewBox="0 0 500 166" role="img" aria-labelledby="title desc">
<title id="title">SakuraCord</title><desc id="desc">SakuraCord</desc>
<defs><linearGradient id="wash" x2="1" y2="1"><stop stop-color="#291E31"/><stop offset="1" stop-color="#3C2549"/></linearGradient><clipPath id="clip"><rect width="500" height="166" rx="16"/></clipPath></defs>
<g clip-path="url(#clip)"><rect width="500" height="166" fill="url(#wash)"/>
<circle cx="410" cy="71" r="127" fill="#392338" opacity=".5"/>
<text x="24" y="63" font-family="DejaVu Sans, Arial, sans-serif" font-size="11" letter-spacing="1.5" fill="#D5A9CC">A SMALL CONTRIBUTION</text>
<text x="23" y="100" font-family="DejaVu Sans, Arial, sans-serif" font-size="27" font-weight="700" letter-spacing="-1" fill="#FFE9F5">SakuraCord</text>
<rect x="288" y="26" width="176" height="111" rx="18" fill="#46314C" stroke="#704664" stroke-width="2"/>
<path d="M288 56H464" stroke="#704664"/>
<circle cx="304" cy="41" r="3" fill="#FF8DC4"/><circle cx="316" cy="41" r="3" fill="#B96191"/>
<g transform="translate(320 87) scale(0.6)"><path class="" d="M0 9C-3 6-12 0-12-6C-12-14-3-16 0-8C3-16 12-14 12-6C12 0 3 6 0 9Z" fill="#FF8DC4"/></g><g transform="translate(356 84) scale(0.7)" fill="#B96191"><ellipse cx="0" cy="-9" rx="7" ry="10" transform="rotate(0)"/><ellipse cx="0" cy="-9" rx="7" ry="10" transform="rotate(72)"/><ellipse cx="0" cy="-9" rx="7" ry="10" transform="rotate(144)"/><ellipse cx="0" cy="-9" rx="7" ry="10" transform="rotate(216)"/><ellipse cx="0" cy="-9" rx="7" ry="10" transform="rotate(288)"/><circle r="3" fill="#FF8DC4"/></g><path class="" transform="translate(393 83) scale(0.85)" d="M0-12Q2-2 12 0Q2 2 0 12Q-2 2-12 0Q-2-2 0-12Z" fill="#FF8DC4"/>
<circle cx="430" cy="83" r="11" fill="#392338" stroke="#704664"/>
<path d="M425 85Q430 90 435 85" fill="none" stroke="#FF8DC4" stroke-width="1.7"/>
<rect x="376" y="111" width="75" height="15" rx="7.5" fill="#392338"/>
<circle cx="386" cy="118.5" r="3" fill="#FF8DC4"/><path d="M395 118.5H441" stroke="#B96191" stroke-width="2" stroke-linecap="round"/></g>
</svg>
